<mxfile host="Electron" agent="Mozilla/5.0 (X11; Linux x86_64) AppleWebKit/537.36 (KHTML, like Gecko) draw.io/27.0.5 Chrome/134.0.6998.205 Electron/35.3.0 Safari/537.36" version="27.0.5">
  <diagram name="Page-1" id="ib0KKrDDxVYF5MeXXiUM">
    <mxGraphModel dx="1722" dy="1136" grid="1" gridSize="10" guides="1" tooltips="1" connect="1" arrows="1" fold="1" page="1" pageScale="1" pageWidth="850" pageHeight="1100" background="#ffffff" math="0" shadow="1">
      <root>
        <mxCell id="0" />
        <mxCell id="1" parent="0" />
        <mxCell id="14" value="Specimen and collection" style="edgeStyle=orthogonalEdgeStyle;endArrow=block;html=1;" parent="1" edge="1">
          <mxGeometry relative="1" as="geometry">
            <mxPoint x="750" y="350" as="targetPoint" />
          </mxGeometry>
        </mxCell>
        <mxCell id="15" value="report delivery offline" style="edgeStyle=orthogonalEdgeStyle;endArrow=block;html=1;" parent="1" edge="1">
          <mxGeometry relative="1" as="geometry">
            <mxPoint x="700" y="380" as="sourcePoint" />
          </mxGeometry>
        </mxCell>
        <mxCell id="sfKcnbmMzuwdX9yF3wZo-21" value="&lt;div&gt;&lt;font style=&quot;font-size: 11px;&quot;&gt;Longboard Rider&lt;/font&gt;&lt;/div&gt;" style="shape=umlActor;verticalLabelPosition=bottom;verticalAlign=top;html=1;outlineConnect=0;strokeColor=#666666;align=center;fontFamily=Helvetica;fontSize=12;fontColor=#333333;labelBackgroundColor=none;fillColor=#f5f5f5;horizontal=1;textShadow=0;" parent="1" vertex="1">
          <mxGeometry x="290" y="510" width="30" height="60" as="geometry" />
        </mxCell>
        <mxCell id="CbTRWkR76J8zcbdZSMRa-18" value="&lt;font&gt;Account Access System&lt;/font&gt;" style="rounded=0;whiteSpace=wrap;html=1;labelPosition=center;verticalLabelPosition=top;align=left;verticalAlign=bottom;fillColor=#eeeeee;strokeColor=#36393d;fontSize=16;fontColor=#000000;" parent="1" vertex="1">
          <mxGeometry x="440" y="310" width="730" height="540" as="geometry" />
        </mxCell>
        <mxCell id="-pO5D620ASrmPBSO5rts-19" style="rounded=0;orthogonalLoop=1;jettySize=auto;html=1;strokeColor=#000000;endArrow=none;startFill=0;shadow=0;jumpStyle=none;exitX=0.982;exitY=0.602;exitDx=0;exitDy=0;exitPerimeter=0;" parent="1" source="yoxUfFOzrHix0iHAsxGL-21" target="yoxUfFOzrHix0iHAsxGL-15" edge="1">
          <mxGeometry relative="1" as="geometry">
            <mxPoint x="1080.0000000000002" y="490.04237288135573" as="sourcePoint" />
            <mxPoint x="1507.5" y="420" as="targetPoint" />
          </mxGeometry>
        </mxCell>
        <mxCell id="-pO5D620ASrmPBSO5rts-23" style="rounded=0;orthogonalLoop=1;jettySize=auto;html=1;strokeColor=#000000;endArrow=none;startFill=0;shadow=0;jumpStyle=none;exitX=1;exitY=0.5;exitDx=0;exitDy=0;" parent="1" source="yoxUfFOzrHix0iHAsxGL-20" target="yoxUfFOzrHix0iHAsxGL-15" edge="1">
          <mxGeometry relative="1" as="geometry">
            <mxPoint x="1020.0000000000002" y="620.0048076923076" as="sourcePoint" />
            <mxPoint x="1447.7388973951056" y="634.4501286269015" as="targetPoint" />
          </mxGeometry>
        </mxCell>
        <mxCell id="-pO5D620ASrmPBSO5rts-25" value="&lt;font style=&quot;font-size: 14px;&quot;&gt;Register new user account&lt;/font&gt;" style="ellipse;whiteSpace=wrap;html=1;fillColor=#ffcc99;strokeColor=#36393d;fontColor=#7EA6E0;" parent="1" vertex="1">
          <mxGeometry x="530" y="330" width="200" height="80" as="geometry" />
        </mxCell>
        <mxCell id="-pO5D620ASrmPBSO5rts-39" style="rounded=0;orthogonalLoop=1;jettySize=auto;html=1;strokeColor=#000000;endArrow=none;startFill=0;shadow=0;jumpStyle=none;entryX=0.317;entryY=0.958;entryDx=0;entryDy=0;entryPerimeter=0;" parent="1" source="sfKcnbmMzuwdX9yF3wZo-21" target="-pO5D620ASrmPBSO5rts-25" edge="1">
          <mxGeometry relative="1" as="geometry">
            <mxPoint x="330" y="440" as="sourcePoint" />
            <mxPoint x="480" y="390" as="targetPoint" />
          </mxGeometry>
        </mxCell>
        <mxCell id="-pO5D620ASrmPBSO5rts-40" style="rounded=0;orthogonalLoop=1;jettySize=auto;html=1;strokeColor=#000000;endArrow=none;startFill=0;shadow=0;jumpStyle=none;" parent="1" source="sfKcnbmMzuwdX9yF3wZo-21" target="yoxUfFOzrHix0iHAsxGL-16" edge="1">
          <mxGeometry relative="1" as="geometry">
            <mxPoint x="330" y="537" as="sourcePoint" />
            <mxPoint x="600.7000000000003" y="514.656" as="targetPoint" />
          </mxGeometry>
        </mxCell>
        <mxCell id="-pO5D620ASrmPBSO5rts-41" style="rounded=0;orthogonalLoop=1;jettySize=auto;html=1;strokeColor=#000000;endArrow=none;startFill=0;shadow=0;jumpStyle=none;entryX=0.023;entryY=0.373;entryDx=0;entryDy=0;entryPerimeter=0;" parent="1" source="sfKcnbmMzuwdX9yF3wZo-21" target="yoxUfFOzrHix0iHAsxGL-17" edge="1">
          <mxGeometry relative="1" as="geometry">
            <mxPoint x="264" y="847" as="sourcePoint" />
            <mxPoint x="600.0000000000005" y="643.9999999999998" as="targetPoint" />
          </mxGeometry>
        </mxCell>
        <mxCell id="yoxUfFOzrHix0iHAsxGL-15" value="&lt;div&gt;&lt;font style=&quot;font-size: 11px;&quot;&gt;Cloud&lt;/font&gt;&lt;/div&gt;" style="shape=umlActor;verticalLabelPosition=bottom;verticalAlign=top;html=1;outlineConnect=0;strokeColor=#666666;align=center;fontFamily=Helvetica;fontSize=12;fontColor=#000000;labelBackgroundColor=none;fillColor=#f5f5f5;horizontal=1;textShadow=0;" parent="1" vertex="1">
          <mxGeometry x="1310" y="510" width="30" height="60" as="geometry" />
        </mxCell>
        <mxCell id="yoxUfFOzrHix0iHAsxGL-16" value="&lt;font style=&quot;font-size: 14px;&quot;&gt;Login into App&lt;/font&gt;" style="ellipse;whiteSpace=wrap;html=1;fillColor=#ffcc99;strokeColor=#36393d;fontColor=#7EA6E0;" parent="1" vertex="1">
          <mxGeometry x="560" y="500" width="200" height="80" as="geometry" />
        </mxCell>
        <mxCell id="yoxUfFOzrHix0iHAsxGL-17" value="&lt;font style=&quot;font-size: 14px;&quot;&gt;Logout&lt;/font&gt;" style="ellipse;whiteSpace=wrap;html=1;fillColor=#ffcc99;strokeColor=#36393d;fontColor=#7EA6E0;" parent="1" vertex="1">
          <mxGeometry x="540" y="610" width="200" height="80" as="geometry" />
        </mxCell>
        <mxCell id="yoxUfFOzrHix0iHAsxGL-18" value="&lt;span style=&quot;font-size: 14px;&quot;&gt;Access App without a Registered Account&lt;/span&gt;" style="ellipse;whiteSpace=wrap;html=1;fillColor=#ffcc99;strokeColor=#36393d;fontColor=#7EA6E0;" parent="1" vertex="1">
          <mxGeometry x="550" y="710" width="200" height="80" as="geometry" />
        </mxCell>
        <mxCell id="yoxUfFOzrHix0iHAsxGL-19" style="rounded=0;orthogonalLoop=1;jettySize=auto;html=1;strokeColor=#000000;endArrow=none;startFill=0;shadow=0;jumpStyle=none;entryX=0.015;entryY=0.373;entryDx=0;entryDy=0;entryPerimeter=0;" parent="1" source="sfKcnbmMzuwdX9yF3wZo-21" target="yoxUfFOzrHix0iHAsxGL-18" edge="1">
          <mxGeometry relative="1" as="geometry">
            <mxPoint x="280" y="640" as="sourcePoint" />
            <mxPoint x="645" y="698" as="targetPoint" />
          </mxGeometry>
        </mxCell>
        <mxCell id="yoxUfFOzrHix0iHAsxGL-20" value="&lt;font style=&quot;font-size: 14px;&quot;&gt;Create New Login&lt;/font&gt;" style="ellipse;whiteSpace=wrap;html=1;fillColor=#ffcc99;strokeColor=#36393d;fontColor=#7EA6E0;" parent="1" vertex="1">
          <mxGeometry x="850" y="330" width="200" height="80" as="geometry" />
        </mxCell>
        <mxCell id="yoxUfFOzrHix0iHAsxGL-21" value="&lt;font style=&quot;font-size: 14px;&quot;&gt;Authenticate&lt;/font&gt;" style="ellipse;whiteSpace=wrap;html=1;fillColor=#ffcc99;strokeColor=#36393d;fontColor=#7EA6E0;" parent="1" vertex="1">
          <mxGeometry x="860" y="440" width="200" height="80" as="geometry" />
        </mxCell>
        <mxCell id="yoxUfFOzrHix0iHAsxGL-22" value="&amp;lt;&amp;lt;include&amp;gt;&amp;gt;" style="endArrow=classic;html=1;rounded=0;fillColor=#f5f5f5;gradientColor=#b3b3b3;strokeColor=#666666;dashed=1;fontColor=#060606;align=center;labelBackgroundColor=none;exitX=1;exitY=0.5;exitDx=0;exitDy=0;entryX=0;entryY=0.5;entryDx=0;entryDy=0;" parent="1" source="-pO5D620ASrmPBSO5rts-25" target="yoxUfFOzrHix0iHAsxGL-20" edge="1">
          <mxGeometry width="50" height="50" relative="1" as="geometry">
            <mxPoint x="700" y="444" as="sourcePoint" />
            <mxPoint x="830" y="290" as="targetPoint" />
          </mxGeometry>
        </mxCell>
        <mxCell id="yoxUfFOzrHix0iHAsxGL-23" value="&amp;lt;&amp;lt;include&amp;gt;&amp;gt;" style="endArrow=classic;html=1;rounded=0;fillColor=#f5f5f5;gradientColor=#b3b3b3;strokeColor=#666666;dashed=1;fontColor=#060606;align=center;labelBackgroundColor=none;exitX=1;exitY=0.5;exitDx=0;exitDy=0;entryX=0.032;entryY=0.654;entryDx=0;entryDy=0;entryPerimeter=0;" parent="1" source="yoxUfFOzrHix0iHAsxGL-18" target="yoxUfFOzrHix0iHAsxGL-28" edge="1">
          <mxGeometry width="50" height="50" relative="1" as="geometry">
            <mxPoint x="730" y="844" as="sourcePoint" />
            <mxPoint x="860" y="690" as="targetPoint" />
          </mxGeometry>
        </mxCell>
        <mxCell id="yoxUfFOzrHix0iHAsxGL-24" value="&amp;lt;&amp;lt;include&amp;gt;&amp;gt;" style="endArrow=classic;html=1;rounded=0;fillColor=#f5f5f5;gradientColor=#b3b3b3;strokeColor=#666666;dashed=1;fontColor=#060606;align=center;labelBackgroundColor=none;exitX=0.915;exitY=0.248;exitDx=0;exitDy=0;exitPerimeter=0;" parent="1" source="yoxUfFOzrHix0iHAsxGL-16" target="yoxUfFOzrHix0iHAsxGL-21" edge="1">
          <mxGeometry width="50" height="50" relative="1" as="geometry">
            <mxPoint x="760" y="510" as="sourcePoint" />
            <mxPoint x="890" y="356" as="targetPoint" />
          </mxGeometry>
        </mxCell>
        <mxCell id="yoxUfFOzrHix0iHAsxGL-25" value="&amp;lt;&amp;lt;include&amp;gt;&amp;gt;" style="endArrow=classic;html=1;rounded=0;fillColor=#f5f5f5;gradientColor=#b3b3b3;strokeColor=#666666;dashed=1;fontColor=#060606;align=center;labelBackgroundColor=none;" parent="1" source="-pO5D620ASrmPBSO5rts-25" target="yoxUfFOzrHix0iHAsxGL-21" edge="1">
          <mxGeometry width="50" height="50" relative="1" as="geometry">
            <mxPoint x="750" y="534" as="sourcePoint" />
            <mxPoint x="880" y="380" as="targetPoint" />
          </mxGeometry>
        </mxCell>
        <mxCell id="yoxUfFOzrHix0iHAsxGL-26" value="&lt;font style=&quot;font-size: 14px;&quot;&gt;Stay Logged In&lt;/font&gt;" style="ellipse;whiteSpace=wrap;html=1;fillColor=#ffcc99;strokeColor=#36393d;fontColor=#7EA6E0;" parent="1" vertex="1">
          <mxGeometry x="850" y="590" width="200" height="80" as="geometry" />
        </mxCell>
        <mxCell id="yoxUfFOzrHix0iHAsxGL-27" value="&amp;lt;&amp;lt;include&amp;gt;&amp;gt;" style="endArrow=classic;html=1;rounded=0;fillColor=#f5f5f5;gradientColor=#b3b3b3;strokeColor=#666666;dashed=1;fontColor=#060606;align=center;labelBackgroundColor=none;entryX=0.09;entryY=0.258;entryDx=0;entryDy=0;entryPerimeter=0;exitX=0.982;exitY=0.571;exitDx=0;exitDy=0;exitPerimeter=0;" parent="1" source="yoxUfFOzrHix0iHAsxGL-16" target="yoxUfFOzrHix0iHAsxGL-26" edge="1">
          <mxGeometry width="50" height="50" relative="1" as="geometry">
            <mxPoint x="760" y="522" as="sourcePoint" />
            <mxPoint x="936" y="580" as="targetPoint" />
          </mxGeometry>
        </mxCell>
        <mxCell id="yoxUfFOzrHix0iHAsxGL-28" value="&lt;font style=&quot;font-size: 14px;&quot;&gt;Track Unregistered User Account&lt;/font&gt;" style="ellipse;whiteSpace=wrap;html=1;fillColor=#ffcc99;strokeColor=#36393d;fontColor=#7EA6E0;" parent="1" vertex="1">
          <mxGeometry x="840" y="700" width="200" height="80" as="geometry" />
        </mxCell>
        <mxCell id="yoxUfFOzrHix0iHAsxGL-29" style="rounded=0;orthogonalLoop=1;jettySize=auto;html=1;strokeColor=#000000;endArrow=none;startFill=0;shadow=0;jumpStyle=none;exitX=0.998;exitY=0.592;exitDx=0;exitDy=0;exitPerimeter=0;" parent="1" source="yoxUfFOzrHix0iHAsxGL-28" target="yoxUfFOzrHix0iHAsxGL-15" edge="1">
          <mxGeometry relative="1" as="geometry">
            <mxPoint x="1070" y="725.5" as="sourcePoint" />
            <mxPoint x="1324" y="774.5" as="targetPoint" />
          </mxGeometry>
        </mxCell>
      </root>
    </mxGraphModel>
  </diagram>
</mxfile>
